<?xml version="1.0"?>
<svg xmlns="http://www.w3.org/2000/svg" viewBox="0 0 388 110" preserveAspectRatio="xMidYMid meet" class=" logo" id="bbgccbgg" style="width: 55%; height: 55%;"><defs id="SvgjsDefs1193"></defs><g id="SvgjsG1194" featurekey="root" fill="#ffffff" transform="matrix(1,0,0,1,0,0)"></g><g id="SvgjsG1195" featurekey="symbol1" fill="#FFCDD2" transform="matrix(0.4902356072208617,0,0,0.4902356072208617,10,4.947736420153519)"><defs></defs><g><path class="fil0" d="M135 13c5,2 7,8 7,14l0 98c0,6 -2,13 -6,18 -1,1 -1,2 -2,3l-38 56c-1,2 -3,3 -5,1l-24 -13c-1,-1 -1,-2 -2,-3l-25 15c-4,2 -8,3 -12,0l-21 -12c-5,-2 -7,-7 -7,-13l0 -98c0,-9 6,-21 14,-26l88 -51c4,-2 9,-3 12,0l21 11zm-111 60l-11 -7c-4,-2 -7,4 -3,7l11 6c4,2 7,-4 3,-6zm43 105c0,0 0,0 0,0l24 -13c3,-2 5,0 5,2l0 22 33 -48c3,-4 6,-11 6,-16l0 -98c0,-5 -2,-9 -7,-6l-88 51c-6,3 -11,13 -11,20l0 98c0,5 2,9 7,6l31 -18zm40 -92c4,-2 8,0 8,5 0,5 -2,11 -6,14 -4,2 -8,0 -8,-6 -1,-5 2,-11 6,-13zm-22 13c4,-2 7,0 8,5 0,5 -3,11 -7,14 -4,2 -7,0 -8,-6 0,-5 3,-11 7,-13zm-23 13c4,-2 8,0 8,5 1,5 -2,11 -6,14 -4,2 -8,0 -8,-6 -1,-5 2,-11 6,-13z" style="fill: #FFCDD2; fill-rule: nonzero;"></path></g></g><g id="SvgjsG1196" featurekey="text1" fill="#FFCDD2" transform="matrix(4.1436454482083835,0,0,4.1436454482083835,88.12155313993244,-15.690597036866087)"><path d="M4.18 21.92 q0.22 0.02 0.58 0.03 t0.98 0.01 q2.54 0 3.79 -1.29 t1.25 -3.61 q0 -2.36 -1.22 -3.62 t-3.78 -1.26 q-1.12 0 -1.6 0.06 l0 9.68 z M13.42 17.06 q0 1.8 -0.56 3.13 t-1.59 2.22 t-2.48 1.32 t-3.21 0.43 q-0.84 0 -1.9 -0.07 t-2.02 -0.29 l0 -13.46 q0.96 -0.22 2.04 -0.28 t1.92 -0.06 q1.74 0 3.18 0.41 t2.47 1.28 t1.59 2.2 t0.56 3.17 z M25.38 24 q-0.28 -0.82 -0.58 -1.62 t-0.58 -1.64 l-5.84 0 q-0.28 0.84 -0.57 1.65 t-0.57 1.61 l-2.62 0 q0.78 -2.22 1.48 -4.1 t1.37 -3.56 t1.33 -3.2 t1.36 -3 l2.38 0 q0.7 1.48 1.36 3 t1.33 3.2 t1.38 3.56 t1.49 4.1 l-2.72 0 z M21.3 12.82 q-0.46 1.06 -1.05 2.58 t-1.23 3.3 l4.56 0 q-0.64 -1.78 -1.24 -3.32 t-1.04 -2.56 z M32.879999999999995 10.14 q0.44 0.76 0.98 1.86 t1.1 2.31 t1.11 2.46 t1.01 2.31 q0.46 -1.06 1 -2.31 t1.1 -2.46 t1.1 -2.31 t0.98 -1.86 l2.28 0 q0.18 1.52 0.34 3.23 t0.29 3.5 t0.24 3.6 t0.19 3.53 l-2.48 0 q-0.08 -2.42 -0.19 -4.98 t-0.33 -4.96 q-0.22 0.46 -0.52 1.1 t-0.64 1.39 t-0.69 1.55 t-0.68 1.55 t-0.61 1.4 t-0.48 1.11 l-1.88 0 q-0.2 -0.46 -0.48 -1.12 t-0.61 -1.41 t-0.68 -1.55 t-0.69 -1.54 t-0.64 -1.39 t-0.52 -1.09 q-0.22 2.4 -0.33 4.96 t-0.19 4.98 l-2.48 0 q0.08 -1.72 0.19 -3.56 t0.24 -3.65 t0.29 -3.51 t0.34 -3.14 l2.34 0 z M50.89999999999999 22.12 q1.36 0 1.98 -0.46 t0.62 -1.3 q0 -0.5 -0.21 -0.86 t-0.6 -0.65 t-0.95 -0.54 t-1.28 -0.49 q-0.72 -0.26 -1.39 -0.57 t-1.18 -0.77 t-0.82 -1.1 t-0.31 -1.54 q0 -1.88 1.3 -2.95 t3.54 -1.07 q1.3 0 2.31 0.29 t1.59 0.63 l-0.78 2.04 q-0.68 -0.38 -1.49 -0.58 t-1.67 -0.2 q-1.02 0 -1.59 0.42 t-0.57 1.18 q0 0.46 0.19 0.79 t0.54 0.59 t0.82 0.48 t1.03 0.42 q0.98 0.36 1.75 0.73 t1.3 0.88 t0.81 1.2 t0.28 1.67 q0 1.88 -1.33 2.91 t-3.89 1.03 q-0.86 0 -1.57 -0.11 t-1.26 -0.27 t-0.95 -0.33 t-0.64 -0.31 l0.74 -2.06 q0.54 0.3 1.46 0.6 t2.22 0.3 z M60.39999999999999 17.06 q0 1.14 0.28 2.07 t0.81 1.58 t1.29 1.01 t1.72 0.36 q0.94 0 1.7 -0.36 t1.29 -1.01 t0.81 -1.58 t0.28 -2.07 t-0.28 -2.07 t-0.81 -1.58 t-1.29 -1.01 t-1.7 -0.36 q-0.96 0 -1.72 0.36 t-1.29 1.02 t-0.81 1.58 t-0.28 2.06 z M71.22 17.06 q0 1.78 -0.53 3.14 t-1.44 2.27 t-2.13 1.37 t-2.6 0.46 t-2.61 -0.46 t-2.14 -1.37 t-1.45 -2.27 t-0.54 -3.14 t0.54 -3.13 t1.47 -2.27 t2.15 -1.38 t2.58 -0.46 t2.58 0.46 t2.13 1.38 t1.45 2.27 t0.54 3.13 z"></path></g></svg>
