<?xml version="1.0"?>
<svg xmlns="http://www.w3.org/2000/svg" viewBox="0 0 303.0213928222656 181" preserveAspectRatio="xMidYMid meet" class="logo" id="chfcgbgg" style="width: 55%; height: 55%;"><defs id="SvgjsDefs1087"></defs><g id="SvgjsG1088" featurekey="root" fill="#ffffff" transform="matrix(1,0,0,1,0,0)"></g><g id="SvgjsG1089" featurekey="symbol1" fill="#FFCDD2" transform="matrix(0.49295774647887325,0,0,0.49295774647887325,117,4.947446215320641)"><defs></defs><g><path class="fil0" d="M135 13c5,2 7,8 7,14l0 98c0,6 -2,13 -6,18 -1,1 -1,2 -2,3l-38 56c-1,2 -3,3 -5,1l-24 -13c-1,-1 -1,-2 -2,-3l-25 15c-4,2 -8,3 -12,0l-21 -12c-5,-2 -7,-7 -7,-13l0 -98c0,-9 6,-21 14,-26l88 -51c4,-2 9,-3 12,0l21 11zm-111 60l-11 -7c-4,-2 -7,4 -3,7l11 6c4,2 7,-4 3,-6zm43 105c0,0 0,0 0,0l24 -13c3,-2 5,0 5,2l0 22 33 -48c3,-4 6,-11 6,-16l0 -98c0,-5 -2,-9 -7,-6l-88 51c-6,3 -11,13 -11,20l0 98c0,5 2,9 7,6l31 -18zm40 -92c4,-2 8,0 8,5 0,5 -2,11 -6,14 -4,2 -8,0 -8,-6 -1,-5 2,-11 6,-13zm-22 13c4,-2 7,0 8,5 0,5 -3,11 -7,14 -4,2 -7,0 -8,-6 0,-5 3,-11 7,-13zm-23 13c4,-2 8,0 8,5 1,5 -2,11 -6,14 -4,2 -8,0 -8,-6 -1,-5 2,-11 6,-13z" style="fill: #FFCDD2; fill-rule: nonzero;"></path></g></g><g id="SvgjsG1090" featurekey="text1" fill="#FFCDD2" transform="matrix(4.010695176938778,0,0,4.010695176938778,-0.5347578907146611,78.37967878132662)"><path d="M7.5 9.72 q3.04 0 4.78 1.88 t1.74 5.18 q0 3.42 -1.75 5.32 t-4.69 1.9 l-6.2 0 l0 -14.28 l6.12 0 z M7.3 21.36 q1.7 0 2.64 -1.12 t0.94 -3.18 q0 -2.36 -1.01 -3.53 t-3.11 -1.17 l-2.24 0 l0 9 l2.78 0 z M23.32 9.72 l5.34 14.28 l-3.26 0 l-1.08 -3.18 l-5.34 0 l-1.12 3.18 l-3.18 0 l5.42 -14.28 l3.22 0 z M21.66 13.24 l-1.86 5.24 l3.7 0 l-1.8 -5.24 l-0.04 0 z M34.32 9.72 l3.34 9.82 l0.04 0 l3.16 -9.82 l4.42 0 l0 14.28 l-2.94 0 l0 -10.12 l-0.04 0 l-3.5 10.12 l-2.42 0 l-3.5 -10.02 l-0.04 0 l0 10.02 l-2.94 0 l0 -14.28 l4.42 0 z M52.96 9.38 q2.62 0 4.17 1.2 t1.55 3.4 l-3.04 0 q-0.06 -1.08 -0.73 -1.62 t-2.07 -0.54 q-0.98 0 -1.58 0.43 t-0.6 1.19 q0 0.62 0.37 0.9 t1.05 0.5 t2.38 0.64 q1.78 0.44 2.74 0.96 t1.46 1.33 t0.5 1.99 q0 1.36 -0.72 2.42 t-2.1 1.61 t-3.12 0.55 q-2.66 0 -4.37 -1.33 t-1.71 -3.65 l0 -0.1 l3.04 0 q0 1.26 0.86 1.95 t2.28 0.69 q1.26 0 2.03 -0.45 t0.77 -1.33 q0 -0.58 -0.42 -0.98 t-1.12 -0.65 t-2.36 -0.63 q-1.92 -0.48 -2.8 -1.02 t-1.34 -1.31 t-0.46 -1.85 q0 -1.34 0.77 -2.34 t2.01 -1.48 t2.56 -0.48 z M67.42 9.38 q3.16 0 5.09 2.1 t1.93 5.44 q0 3.26 -1.94 5.34 t-5.08 2.08 q-3.16 0 -5.09 -2.08 t-1.93 -5.34 q0 -3.32 1.94 -5.43 t5.08 -2.11 z M63.54 16.92 q0 2.16 1.02 3.47 t2.86 1.31 q1.8 0 2.84 -1.29 t1.04 -3.49 q0 -2.3 -1.03 -3.6 t-2.87 -1.3 q-1.8 0 -2.83 1.3 t-1.03 3.6 z"></path></g></svg>
